<?xml version="1.0" encoding="UTF-8" ?>
<!DOCTYPE svg PUBLIC "-//W3C//DTD SVG 1.1//EN" "http://www.w3.org/Graphics/SVG/1.1/DTD/svg11.dtd">
<svg width="512pt" height="512pt" viewBox="0 0 512 512" version="1.1" xmlns="http://www.w3.org/2000/svg">
<g id="#f54f33ff">
<path fill="#f54f33" opacity="1.00" d=" M 250.17 0.00 L 262.67 0.00 C 301.34 1.14 339.79 10.84 374.08 28.81 C 423.35 54.35 463.83 96.38 487.49 146.58 C 496.18 164.88 502.58 184.25 506.75 204.08 C 505.03 202.87 503.31 201.65 501.80 200.18 C 485.58 183.73 469.16 167.48 452.85 151.12 C 446.81 145.34 441.34 138.92 434.77 133.71 C 432.00 128.16 426.37 123.92 420.00 124.03 C 311.03 123.99 202.05 124.05 93.07 123.99 C 86.85 123.69 80.61 127.17 77.83 132.78 C 75.75 136.49 75.97 140.86 75.99 144.97 C 76.10 152.68 75.89 160.39 76.12 168.10 C 76.36 236.07 76.12 304.04 76.24 372.00 C 76.12 377.74 79.67 382.70 84.19 385.90 L 82.53 385.77 C 83.54 386.98 84.57 388.20 85.65 389.36 C 121.78 425.54 157.99 461.65 194.14 497.83 C 197.00 500.52 199.62 503.45 202.24 506.38 C 157.56 496.79 115.59 474.99 82.11 443.87 C 56.33 420.01 35.48 390.82 21.41 358.63 C 8.09 328.45 1.03 295.66 0.00 262.72 L 0.00 250.18 C 0.62 228.86 3.62 207.59 9.39 187.05 C 24.65 131.81 59.30 82.29 105.72 48.72 C 147.42 18.24 198.56 1.15 250.17 0.00 Z" />
<path fill="#f54f33" opacity="1.00" d=" M 97.31 134.51 C 104.42 132.65 112.13 138.66 111.96 146.02 C 112.26 152.47 106.50 158.28 100.07 158.20 C 93.98 158.35 88.31 153.19 88.07 147.07 C 87.48 141.33 91.71 135.71 97.31 134.51 Z" />
</g>
<g id="#e1e3e9ff">
<path fill="#e1e3e9" opacity="1.00" d=" M 77.83 132.78 C 80.61 127.17 86.85 123.69 93.07 123.99 C 202.05 124.05 311.03 123.99 420.00 124.03 C 426.37 123.92 432.00 128.16 434.77 133.71 C 436.04 137.34 436.06 141.22 436.00 145.02 C 435.88 152.73 436.10 160.44 435.86 168.15 C 315.95 168.14 196.03 168.30 76.12 168.10 C 75.89 160.39 76.10 152.68 75.99 144.97 C 75.97 140.86 75.75 136.49 77.83 132.78 M 97.31 134.51 C 91.71 135.71 87.48 141.33 88.07 147.07 C 88.31 153.19 93.98 158.35 100.07 158.20 C 106.50 158.28 112.26 152.47 111.96 146.02 C 112.13 138.66 104.42 132.65 97.31 134.51 M 132.53 134.69 C 126.89 136.29 123.03 142.40 124.16 148.18 C 125.04 154.54 131.70 159.30 138.02 158.03 C 144.48 157.10 149.24 150.22 147.77 143.84 C 146.61 137.10 139.03 132.54 132.53 134.69 M 169.38 134.47 C 163.73 135.64 159.46 141.31 160.02 147.08 C 160.32 153.53 166.59 158.91 173.03 158.16 C 179.55 157.78 184.84 151.31 183.93 144.84 C 183.34 137.98 176.07 132.78 169.38 134.47 Z" />
</g>
<g id="#ffb202ff">
<path fill="#ffb202" opacity="1.00" d=" M 132.53 134.69 C 139.03 132.54 146.61 137.10 147.77 143.84 C 149.24 150.22 144.48 157.10 138.02 158.03 C 131.70 159.30 125.04 154.54 124.16 148.18 C 123.03 142.40 126.89 136.29 132.53 134.69 Z" />
</g>
<g id="#4cbb41ff">
<path fill="#4cbb41" opacity="1.00" d=" M 169.38 134.47 C 176.07 132.78 183.34 137.98 183.93 144.84 C 184.84 151.31 179.55 157.78 173.03 158.16 C 166.59 158.91 160.32 153.53 160.02 147.08 C 159.46 141.31 163.73 135.64 169.38 134.47 Z" />
</g>
<g id="#dd2c24ff">
<path fill="#dd2c24" opacity="1.00" d=" M 434.77 133.71 C 441.34 138.92 446.81 145.34 452.85 151.12 C 469.16 167.48 485.58 183.73 501.80 200.18 C 503.31 201.65 505.03 202.87 506.75 204.08 C 509.76 216.62 510.81 229.52 512.00 242.33 L 512.00 269.67 C 510.29 293.60 506.05 317.43 498.03 340.09 C 477.01 401.24 431.74 453.48 374.36 483.23 C 342.06 500.25 306.06 509.67 269.68 512.00 L 243.27 512.00 C 229.51 510.91 215.68 509.64 202.24 506.38 C 199.62 503.45 197.00 500.52 194.14 497.83 C 157.99 461.65 121.78 425.54 85.65 389.36 C 84.57 388.20 83.54 386.98 82.53 385.77 L 84.19 385.90 C 87.33 387.03 90.59 388.02 93.98 387.81 C 137.81 387.65 181.66 388.00 225.49 387.64 C 227.98 387.88 230.49 388.01 232.99 388.01 C 296.80 387.95 360.61 388.07 424.41 387.95 C 429.20 385.77 433.11 382.06 435.56 377.40 C 436.31 372.30 435.89 367.13 436.00 361.99 C 436.08 345.76 435.85 329.53 436.10 313.31 C 436.09 312.91 436.07 312.12 436.06 311.73 C 435.38 294.83 435.96 277.89 435.77 260.98 C 435.83 230.03 435.64 199.09 435.86 168.15 C 436.10 160.44 435.88 152.73 436.00 145.02 C 436.06 141.22 436.04 137.34 434.77 133.71 Z" />
</g>
<g id="#ffffffff">
<path fill="#ffffff" opacity="1.00" d=" M 76.12 168.10 C 196.03 168.30 315.95 168.14 435.86 168.15 C 435.64 199.09 435.83 230.03 435.77 260.98 C 435.96 277.89 435.38 294.83 436.06 311.73 C 435.63 311.58 434.78 311.29 434.36 311.15 C 434.19 312.42 434.77 313.14 436.10 313.31 C 435.85 329.53 436.08 345.76 436.00 361.99 C 435.89 367.13 436.31 372.30 435.56 377.40 C 433.11 382.06 429.20 385.77 424.41 387.95 C 360.61 388.07 296.80 387.95 232.99 388.01 C 230.49 388.01 227.98 387.88 225.49 387.64 C 181.66 388.00 137.81 387.65 93.98 387.81 C 90.59 388.02 87.33 387.03 84.19 385.90 C 79.67 382.70 76.12 377.74 76.24 372.00 C 76.12 304.04 76.36 236.07 76.12 168.10 M 130.43 207.41 C 130.60 241.28 130.44 275.14 130.51 309.01 C 132.31 309.00 134.12 308.99 135.92 308.98 C 135.89 293.49 135.92 278.01 135.91 262.52 C 149.28 262.48 162.65 262.49 176.02 262.51 C 183.88 262.62 192.38 263.25 198.93 268.09 C 203.61 271.50 205.91 277.34 206.00 283.01 C 206.23 291.67 206.04 300.33 206.08 308.98 C 207.88 308.99 209.68 309.00 211.49 309.01 C 211.47 300.34 211.56 291.68 211.46 283.01 C 211.38 277.07 209.68 270.91 205.50 266.53 C 202.39 263.05 198.02 261.18 193.79 259.43 C 198.31 257.77 202.80 255.65 206.18 252.12 C 211.40 246.91 213.32 239.21 212.89 232.02 C 212.73 225.09 209.88 217.97 204.14 213.84 C 196.35 208.18 186.33 207.41 177.02 207.31 C 161.49 207.35 145.96 207.15 130.43 207.41 M 218.26 207.29 C 218.25 208.93 218.24 210.56 218.23 212.21 C 231.21 212.30 244.20 212.25 257.19 212.23 C 257.31 244.49 257.24 276.74 257.23 309.00 C 259.05 308.96 260.88 308.94 262.71 308.93 C 262.66 276.69 262.53 244.44 262.77 212.19 C 275.65 212.32 288.54 212.21 301.43 212.25 C 301.49 210.65 301.56 209.05 301.63 207.45 C 273.85 207.09 246.05 207.40 218.26 207.29 M 308.44 207.41 C 308.58 241.27 308.44 275.14 308.51 309.00 C 331.71 308.99 354.90 309.01 378.10 309.00 C 378.09 307.34 378.09 305.69 378.10 304.05 C 356.70 304.04 335.31 304.05 313.92 304.04 C 313.86 271.76 313.98 239.48 313.85 207.20 C 312.05 207.29 310.24 207.35 308.44 207.41 M 222.43 384.35 C 221.80 385.19 222.42 387.21 223.75 386.50 C 225.26 385.83 223.60 383.71 222.43 384.35 Z" />
<path fill="#ffffff" opacity="1.00" d=" M 136.02 212.21 C 151.14 212.37 166.27 212.08 181.39 212.36 C 189.68 212.69 199.22 214.56 204.24 221.88 C 209.85 230.79 208.41 244.28 199.66 250.71 C 193.00 255.93 184.25 257.30 176.02 257.38 C 162.65 257.42 149.28 257.39 135.91 257.39 C 135.97 242.33 135.77 227.27 136.02 212.21 Z" />
</g>
<g id="#53899fff">
<path fill="#53899f" opacity="1.00" d=" M 130.43 207.41 C 145.96 207.15 161.49 207.35 177.02 207.31 C 186.33 207.41 196.35 208.18 204.14 213.84 C 209.88 217.97 212.73 225.09 212.89 232.02 C 213.32 239.21 211.40 246.91 206.18 252.12 C 202.80 255.65 198.31 257.77 193.79 259.43 C 198.02 261.18 202.39 263.05 205.50 266.53 C 209.68 270.91 211.38 277.07 211.46 283.01 C 211.56 291.68 211.47 300.34 211.49 309.01 C 209.68 309.00 207.88 308.99 206.08 308.98 C 206.04 300.33 206.23 291.67 206.00 283.01 C 205.91 277.34 203.61 271.50 198.93 268.09 C 192.38 263.25 183.88 262.62 176.02 262.51 C 162.65 262.49 149.28 262.48 135.91 262.52 C 135.92 278.01 135.89 293.49 135.92 308.98 C 134.12 308.99 132.31 309.00 130.51 309.01 C 130.44 275.14 130.60 241.28 130.43 207.41 M 136.02 212.21 C 135.77 227.27 135.97 242.33 135.91 257.39 C 149.28 257.39 162.65 257.42 176.02 257.38 C 184.25 257.30 193.00 255.93 199.66 250.71 C 208.41 244.28 209.85 230.79 204.24 221.88 C 199.22 214.56 189.68 212.69 181.39 212.36 C 166.27 212.08 151.14 212.37 136.02 212.21 Z" />
<path fill="#53899f" opacity="1.00" d=" M 218.26 207.29 C 246.05 207.40 273.85 207.09 301.63 207.45 C 301.56 209.05 301.49 210.65 301.43 212.25 C 288.54 212.21 275.65 212.32 262.77 212.19 C 262.53 244.44 262.66 276.69 262.71 308.93 C 260.88 308.94 259.05 308.96 257.23 309.00 C 257.24 276.74 257.31 244.49 257.19 212.23 C 244.20 212.25 231.21 212.30 218.23 212.21 C 218.24 210.56 218.25 208.93 218.26 207.29 Z" />
<path fill="#53899f" opacity="1.00" d=" M 308.44 207.41 C 310.24 207.35 312.05 207.29 313.85 207.20 C 313.98 239.48 313.86 271.76 313.92 304.04 C 335.31 304.05 356.70 304.04 378.10 304.05 C 378.09 305.69 378.09 307.34 378.10 309.00 C 354.90 309.01 331.71 308.99 308.51 309.00 C 308.44 275.14 308.58 241.27 308.44 207.41 Z" />
</g>
</svg>
